<?xml version="1.0" encoding="UTF-8" standalone="no"?> <svg id="Layer_1" data-name="Layer 1" xmlns="http://www.w3.org/2000/svg" viewBox="0 0 48 48"><title>Call Center</title><path d="M5,34V24a4.872,4.872,0,0,1,.062-.608A5.007,5.007,0,0,0,2,28v2a5.007,5.007,0,0,0,3.062,4.608A4.872,4.872,0,0,1,5,34Z"/><rect x="7" y="21" width="8" height="16" rx="3"/><path d="M24,5A17.014,17.014,0,0,0,7.142,19.914a4.922,4.922,0,0,1,2.152-.859,15,15,0,0,1,29.412,0,4.922,4.922,0,0,1,2.152.859A17.014,17.014,0,0,0,24,5Z"/><path d="M42.938,23.392A4.872,4.872,0,0,1,43,24V34a4.872,4.872,0,0,1-.062.608A5.007,5.007,0,0,0,46,30V28A5.007,5.007,0,0,0,42.938,23.392Z"/><rect x="33" y="21" width="8" height="16" rx="3"/><path d="M36,39a4.879,4.879,0,0,1-.72-.073A2.981,2.981,0,0,1,33,40H29.858A4,4,0,0,0,26,37H22a4,4,0,0,0,0,8h4a4,4,0,0,0,3.858-3H33a5,5,0,0,0,4.576-3Z"/></svg>