<?xml version="1.0" encoding="utf-8"?>
<!-- Generator: Adobe Illustrator 23.0.2, SVG Export Plug-In . SVG Version: 6.00 Build 0)  -->
<svg version="1.1" id="Layer_1" xmlns="http://www.w3.org/2000/svg" xmlns:xlink="http://www.w3.org/1999/xlink" x="0px" y="0px"
	 viewBox="0 0 266.7515 285.6368" enable-background="new 0 0 266.7515 285.6368" xml:space="preserve">
<g>
	<path d="M266.7515,277.5997V0h-9.7188v5.6661h-55.6679V0h-9.7188v5.6661H43.3399V0h-9.7188v61.022
		c2.7334-2.6748,6.041-4.7627,9.7188-6.062V11.6661H191.646v59.167H77.0274c0.7011,1.9067,1.1816,3.9179,1.4277,6H191.646V136
		H88.6563c0.3828,1.0655,0.7773,1.7916,1.0957,2.254c0.2793,0.1367,0.7754,0.3417,1.4765,0.496
		c1.6094,0.3946,3.8243,0.6172,6.0171,0.6172h0.0059h0.0976c1.7793,0,3.043-0.125,3.0547-0.125
		c0.4239-0.0468,0.8692-0.0722,1.3067-0.0722c2.9355,0,5.6328,1.0625,7.7285,2.83h82.207v59.167H79.6875v6H191.646v59.167H79.6875v6
		H191.646v5.2657h9.7188v-5.2657h55.6679v5.2657H266.7515z M201.3648,11.6661h55.6679v59.167h-55.6679V11.6661z M201.3648,76.8331
		h55.6679V136h-55.6679V76.8331z M201.3648,142h55.6679v59.167h-55.6679V142z M201.3648,266.334v-59.167h55.6679v59.167H201.3648z"
		/>
	<rect x="124.3413" y="150" width="58" height="10"/>
	<path d="M126.3413,196.3331h54V161.667h-54V196.3331z M144.5913,167.75h17.5c1.5879,0,2.875,1.2872,2.875,2.875
		c0,1.5879-1.2871,2.875-2.875,2.875h-17.5c-1.5879,0-2.875-1.2871-2.875-2.875C141.7163,169.0372,143.0034,167.75,144.5913,167.75z
		"/>
	<rect x="54.1739" y="18" width="57.9995" height="10"/>
	<path d="M110.1734,29.667H56.1739v24.0909c7.1054,1.0893,13.2871,5.0141,17.3593,10.5752h36.6402V29.667z M91.9239,41.5h-17.5
		c-1.5879,0-2.875-1.2871-2.875-2.875c0-1.5878,1.2871-2.875,2.875-2.875h17.5c1.5878,0,2.875,1.2872,2.875,2.875
		C94.7989,40.2129,93.5117,41.5,91.9239,41.5z"/>
	<rect x="124.3413" y="18" width="58" height="10"/>
	<path d="M126.3413,64.3331h54V29.667h-54V64.3331z M144.5913,35.75h17.5c1.5879,0,2.875,1.2872,2.875,2.875
		c0,1.5879-1.2871,2.875-2.875,2.875h-17.5c-1.5879,0-2.875-1.2871-2.875-2.875C141.7163,37.0372,143.0034,35.75,144.5913,35.75z"/>
	<path d="M112.1734,157.0054c-0.625,1.1177-1.4258,2.1275-2.3672,2.9946h2.3672V157.0054z"/>
	<path d="M110.1734,161.667h-2.6543c-1.3535,0.751-2.8711,1.253-4.5039,1.4327c-0.8086,0.0839-2.8731,0.2656-5.6641,0.2675
		c-2.7769-0.0078-6.9858-0.1465-11.6626-1.2636c-0.5156-0.1299-1.0537-0.2774-1.6045-0.4366h-4.3965v6.083h12.2364
		c1.5878,0,2.875,1.2872,2.875,2.875c0,1.5879-1.2872,2.875-2.875,2.875H79.6875v1.7735v21.0596h30.4859V161.667z"/>
	<rect x="124.3413" y="215" width="58" height="10"/>
	<path d="M126.3413,261.3331h54V226.667h-54V261.3331z M144.5913,232.75h17.5c1.5879,0,2.875,1.2872,2.875,2.875
		c0,1.5879-1.2871,2.875-2.875,2.875h-17.5c-1.5879,0-2.875-1.2871-2.875-2.875C141.7163,234.0372,143.0034,232.75,144.5913,232.75z
		"/>
	<rect x="79.6875" y="215" width="32.4859" height="10"/>
	<path d="M110.1734,226.667H79.6875v6.083h12.2364c1.5878,0,2.875,1.2872,2.875,2.875c0,1.5879-1.2872,2.875-2.875,2.875H79.6875
		v22.8331h30.4859V226.667z"/>
	<path d="M180.5894,82.5h-16.5v48h16.5V82.5z M172.3394,125c-2.6231,0-4.75-2.1269-4.75-4.75c0-2.623,2.1269-4.75,4.75-4.75
		c2.623,0,4.75,2.127,4.75,4.75C177.0894,122.8731,174.9624,125,172.3394,125z"/>
	<path d="M158.5894,82.5h-16.5v48h16.5V82.5z M150.3394,125c-2.6231,0-4.75-2.1269-4.75-4.75c0-2.623,2.1269-4.75,4.75-4.75
		c2.623,0,4.75,2.127,4.75,4.75C155.0894,122.8731,152.9624,125,150.3394,125z"/>
	<path d="M137.9585,88.7305l-14.7558-7.3848l-21.4825,42.9249l14.7559,7.3837L137.9585,88.7305z M111.5601,123.044
		c-2.3457-1.1738-3.2949-4.0274-2.1211-6.374c1.1738-2.3457,4.0273-3.295,6.373-2.1211c2.3457,1.1738,3.2969,4.0273,2.1211,6.373
		C116.7593,123.2676,113.9058,124.2178,111.5601,123.044z"/>
	<polygon points="209.8394,43 215.0074,65.5 242.1734,65.5 247.3394,43 	"/>
	<path d="M68.6856,95.1983c3.6963-4.0088,5.957-9.3623,5.957-15.2471c0-12.4238-10.0742-22.5-22.5-22.5
		c-12.4277,0-22.5,10.0762-22.5,22.5c0,5.8618,2.2422,11.1978,5.9121,15.2012H67.959
		C68.1983,95.1524,68.4434,95.1827,68.6856,95.1983z"/>
	<path d="M16.3916,133.7886c-0.0009-0.0029-0.0019-0.0063-0.0029-0.0093c-0.2656-0.6914-0.3848-1.3496-0.3887-2.1308
		c-0.0039-0.6348,0.1055-1.374,0.3145-2.1738c0.2461-0.94,0.6328-1.9659,1.208-3.0528c0.9639-1.8574,2.4326-3.7929,4.0732-5.5137
		v152.3653c0,6.8301,5.5371,12.3633,12.3633,12.3633c6.8281,0,12.3652-5.5332,12.3652-12.3633V183.002h4.6348v90.2715
		c0,6.8301,5.5371,12.3633,12.3633,12.3633c6.8281,0,12.3652-5.5332,12.3652-12.3633V152.5118
		c3.3789,3.3691,7.3926,4.8105,10.9297,5.7011c4.0283,0.9629,7.8164,1.1465,10.73,1.1543c2.9766,0,5.0215-0.2226,5.2305-0.2441
		c4.3925-0.4824,7.5605-4.4336,7.0781-8.8262s-4.4356-7.5605-8.8281-7.0781c-0.1797,0.0195-1.584,0.1484-3.4805,0.1484
		c-2.103,0.0078-4.8394-0.1816-6.98-0.709c-2.1973-0.4863-3.4453-1.4023-3.4473-1.5214c-1.4121-1.7188-2.4824-4.4024-3.0859-7.8887
		c-0.9433-5.2266-0.7031-11.6719-0.9492-17.5117c-0.1836-2.9727-0.3301-5.8008-1.6563-9.1387
		c-0.6875-1.6465-1.8222-3.5625-3.8222-5.1016c-1.9727-1.5625-4.6836-2.3515-6.9512-2.3086c-0.3887,0-0.7676,0.0372-1.1416,0.0899
		c-0.4404-0.0781-0.8916-0.125-1.3545-0.125H29.3242c-0.6054,0-1.1914,0.0762-1.7578,0.207
		c-3.0781,0.4238-5.5547,1.5938-8.1152,3.0039c-4.5508,2.6407-9.0273,6.5039-12.7363,11.3711
		c-3.5655,4.7573-6.5274,10.5889-6.7002,17.4795C0.0108,131.3594,0.001,131.502,0,131.6485
		c-0.0039,2.5649,0.4483,5.2471,1.4444,7.832c0.0127,0.0342,0.0205,0.0694,0.0341,0.1035H1.4766
		c2.0058,5.1924,6.1006,9.6651,11.6875,13.0318c1.3779,0.8335,2.8535,1.6142,4.4297,2.3462v-19.2071
		C16.9903,135.0245,16.6221,134.3628,16.3916,133.7886z"/>
	<circle cx="229.5894" cy="115.25" r="15.75"/>
	<polygon points="242.4116,158.3829 233.3316,154.1934 225.8863,170.334 225.3843,170.334 220.2613,151.8672 216.0855,153.0254 
		220.8882,170.334 218.0074,170.334 218.0074,195 239.3394,195 239.3394,170.334 236.8999,170.334 	"/>
	<path d="M215.2984,231v29.5h29.5V231H215.2984z M230.0484,242.334c-2.0254,0-3.668-1.6416-3.668-3.667
		c0-2.0254,1.6426-3.667,3.668-3.667c2.0254,0,3.666,1.6416,3.666,3.667C233.7144,240.6924,232.0738,242.334,230.0484,242.334z"/>
</g>
</svg>
