<?xml version="1.0" encoding="UTF-8"?>
<!DOCTYPE svg PUBLIC "-//W3C//DTD SVG 1.1//EN" "http://www.w3.org/Graphics/SVG/1.1/DTD/svg11.dtd">
<!-- Creator: CorelDRAW -->
<svg xmlns="http://www.w3.org/2000/svg" xml:space="preserve" width="512px" height="512px" version="1.1" style="shape-rendering:geometricPrecision; text-rendering:geometricPrecision; image-rendering:optimizeQuality; fill-rule:evenodd; clip-rule:evenodd"
viewBox="0 0 512 512"
 xmlns:xlink="http://www.w3.org/1999/xlink">
 <defs>
  <style type="text/css">
   <![CDATA[
    .fil0 {fill:black}
   ]]>
  </style>
 </defs>
 <g id="Layer_x0020_1">
  <metadata id="CorelCorpID_0Corel-Layer"/>
  <g id="_329701496">
   <g>
    <g>
     <path class="fil0" d="M366 347c-1,0 -3,-1 -5,-2l-182 -182c-3,-3 -3,-8 0,-11 3,-2 8,-2 11,0l181 182c3,3 3,8 0,11 -1,1 -3,2 -5,2z"/>
    </g>
    <g>
     <path class="fil0" d="M457 485c-8,0 -17,-3 -23,-9l-310 -310c-26,4 -51,-5 -70,-23 -21,-21 -29,-53 -20,-82 1,-4 5,-6 9,-5 4,1 6,6 5,9 -7,24 -1,50 17,68 16,16 38,22 60,18 3,0 5,1 7,2l312 312c7,8 20,8 27,0l22 -21c7,-7 7,-19 0,-27l-313 -312c-2,-2 -2,-5 -2,-7 4,-22 -3,-45 -19,-61 -18,-18 -43,-24 -67,-17 -4,2 -8,0 -9,-4 -2,-4 0,-8 4,-9 29,-10 61,-2 82,20 19,18 27,44 24,70l309 309c13,13 13,35 0,48l-21 21c-6,8 -15,10 -24,10z"/>
    </g>
    <g>
     <path class="fil0" d="M453 452c-7,0 -14,-3 -19,-8l-22 -22c-5,-5 -8,-12 -8,-19 0,-7 3,-13 8,-18 10,-10 27,-10 37,0 0,0 0,0 0,0l22 22c10,11 10,27 0,37 -5,5 -11,8 -18,8zm-23 -60c-3,0 -6,1 -8,3 -2,3 -3,5 -3,8 0,3 1,6 3,8l23 23c4,4 11,4 16,0 4,-5 4,-12 0,-17l-22 -22c-3,-2 -6,-3 -9,-3z"/>
    </g>
    <g>
     <path class="fil0" d="M96 125c-2,0 -4,0 -5,-2l-55 -55c-3,-3 -3,-7 0,-10 2,-3 7,-3 10,0l50 49 39 -38 -50 -50c-3,-3 -3,-7 0,-10 3,-3 7,-3 10,0l55 55c1,1 2,3 2,5 0,2 -1,3 -2,5l-49 49c-2,2 -4,2 -5,2z"/>
    </g>
    <g>
     <path class="fil0" d="M121 366l-76 0c-2,0 -5,-1 -6,-3l-38 -66c-1,-2 -1,-5 0,-7l38 -66c1,-2 4,-4 6,-4l76 0c2,0 5,1 6,4l38 66c1,2 1,5 0,7l-38 66c-1,2 -4,3 -6,3zm-72 -14l68 0 33 -59 -33 -58 -68 0 -33 58 33 59z"/>
    </g>
    <g>
     <path class="fil0" d="M83 332c-21,0 -39,-17 -39,-39 0,-21 18,-38 39,-38 21,0 38,17 38,38 0,22 -17,39 -38,39zm0 -63c-13,0 -24,11 -24,24 0,14 11,25 24,25 13,0 24,-11 24,-25 0,-13 -11,-24 -24,-24z"/>
    </g>
    <g>
     <path class="fil0" d="M256 509l-76 0c-3,0 -5,-1 -7,-4l-37 -65c-2,-2 -2,-5 0,-7l37 -66c2,-2 4,-4 7,-4l76 0c2,0 5,2 6,4l38 66c1,2 1,5 0,7l-38 65c-1,3 -4,4 -6,4zm-72 -14l67 0 34 -58 -34 -59 -67 0 -34 59 34 58z"/>
    </g>
    <g>
     <path class="fil0" d="M218 475c-22,0 -39,-17 -39,-38 0,-22 17,-39 39,-39 21,0 38,17 38,39 0,21 -17,38 -38,38zm0 -63c-14,0 -25,11 -25,24 0,14 11,24 25,24 13,0 23,-11 23,-24 1,-13 -10,-24 -23,-24z"/>
    </g>
   </g>
  </g>
 </g>
</svg>
